<?xml version="1.0" encoding="iso-8859-1"?>
<!-- Generator: Adobe Illustrator 19.0.0, SVG Export Plug-In . SVG Version: 6.00 Build 0)  -->
<svg xmlns="http://www.w3.org/2000/svg" xmlns:xlink="http://www.w3.org/1999/xlink" version="1.1" id="Capa_1" x="0px" y="0px" viewBox="0 0 496 496" style="enable-background:new 0 0 496 496;" xml:space="preserve" width="512px" height="512px">
<g>
	<g>
		<path d="M416,294.064v-60.52l12.064-30.176c2.608-6.52,3.936-13.384,3.936-20.408c0-30.304-24.656-54.96-54.96-54.96h-2.08    c-30.304,0-54.96,24.656-54.96,54.96c0,7.024,1.328,13.888,3.928,20.408L336,233.544v60.52    c-17.752,5.464-33.584,14.392-46.392,25.936h-20.544C281.328,303.384,288,284.032,288,264c0-45.176-33.472-83.608-80-97.936    v-60.52l12.064-30.176C222.672,68.848,224,61.984,224,54.96C224,24.656,199.344,0,169.04,0h-2.08C136.656,0,112,24.656,112,54.96    c0,7.024,1.328,13.888,3.928,20.408L128,105.544v60.488c-27.96,8.608-51.768,26.032-66,49.256C50.216,210.64,37.416,208,24,208H0    v24c0,37.064,19.552,69.576,48.832,88H0v8c0,92.632,75.36,168,168,168h208c66.168,0,120-46.656,120-104    C496,346.824,462.528,308.392,416,294.064z M374.96,144h2.088c21.48,0,38.96,17.48,38.96,38.96c0,4.984-0.936,9.84-2.792,14.464    L402.584,224h-53.16l-10.632-26.576C336.936,192.8,336,187.936,336,182.96C336,161.48,353.48,144,374.96,144z M352,256v-16h48v16    H352z M400,272v18.096c-7.76-1.368-15.784-2.096-24-2.096s-16.24,0.728-24,2.096V272H400z M166.96,16h2.088    C190.52,16,208,33.48,208,54.96c0,4.984-0.936,9.84-2.792,14.464L194.584,96h-53.16l-10.632-26.576    C128.936,64.8,128,59.936,128,54.96C128,33.48,145.48,16,166.96,16z M144,128v-16h48v16H144z M192,144v18.096    c-7.76-1.368-15.784-2.096-24-2.096c-8.16,0-16.184,0.768-24,2.16V144H192z M168,176c57.344,0,104,39.48,104,88    c0,14.48-4.304,28.568-12.216,41.168c-19.888-23.2-51.4-38.488-83.784-40.696V232h-16v32.408    c-13.736,0.848-27.184,3.824-39.576,8.808c-2.44-6.048-5.44-11.792-8.928-17.216H112v-1.368c0-12.456,4.848-24.168,13.656-32.976    l-11.312-11.312c-8.056,8.056-13.584,17.952-16.328,28.712c-6.4-6.496-13.688-12.088-21.6-16.736C94.472,194,129.664,176,168,176z     M125.216,288.488c13.2-5.504,27.92-8.488,42.784-8.488c31.792,0,63.6,14.936,81.856,38.112c-0.584,0.632-1.184,1.264-1.792,1.888    H128v-8C128,303.904,126.976,296.056,125.216,288.488z M16,232v-8h8c47.344,0,85.968,37.608,87.824,84.512l-58.168-58.168    l-11.312,11.312l58.168,58.168C53.608,317.968,16,279.344,16,232z M168,480c-81.128,0-147.616-63.888-151.792-144H104h24h147.048    c-12,16.184-19.048,35.376-19.048,56c0,37.064,22.56,69.576,56.344,88H168z M376,480c-33.832,0-63.856-13.8-82.856-35.04    C311.832,425.696,345.008,408,376,408s64.168,17.696,82.856,36.96C439.856,466.2,409.832,480,376,480z M384,392.32V360h-16v32.32    c-32.744,2.56-64.784,20.328-84.496,39.712C276.2,420.008,272,406.424,272,392c0-48.52,46.656-88,104-88s104,39.48,104,88    c0,14.424-4.2,28.008-11.504,40.04C448.784,412.648,416.744,394.888,384,392.32z" fill="#47ab09"/>
	</g>
</g>
<g>
	<g>
		<path d="M429.656,330.344l-11.312,11.312c8.808,8.808,13.656,20.512,13.656,32.968V376h16v-1.376    C448,357.888,441.488,342.16,429.656,330.344z" fill="#47ab09"/>
	</g>
</g>
<g>
	<g>
		<path d="M322.344,330.344C310.512,342.168,304,357.888,304,374.624V376h16v-1.376c0-12.456,4.848-24.168,13.656-32.968    L322.344,330.344z" fill="#47ab09"/>
	</g>
</g>
<g>
	<g>
		<rect x="368" y="328" width="16" height="16" fill="#47ab09"/>
	</g>
</g>
<g>
	<g>
		<path d="M221.656,210.344l-11.312,11.312c8.808,8.808,13.656,20.512,13.656,32.976V256h16v-1.368    C240,237.904,233.488,222.176,221.656,210.344z" fill="#47ab09"/>
	</g>
</g>
<g>
	<g>
		<rect x="160" y="200" width="16" height="16" fill="#47ab09"/>
	</g>
</g>
<g>
	<g>
		<path d="M62.24,384.672l-14.08,7.576C71.976,436.504,117.896,464,168,464v-16C123.792,448,83.272,423.736,62.24,384.672z" fill="#47ab09"/>
	</g>
</g>
<g>
	<g>
		<path d="M51.792,358l-15.496,4c1.44,5.584,3.272,11.152,5.432,16.544l14.848-5.968C54.672,367.832,53.064,362.92,51.792,358z" fill="#47ab09"/>
	</g>
</g>
<g>
</g>
<g>
</g>
<g>
</g>
<g>
</g>
<g>
</g>
<g>
</g>
<g>
</g>
<g>
</g>
<g>
</g>
<g>
</g>
<g>
</g>
<g>
</g>
<g>
</g>
<g>
</g>
<g>
</g>
</svg>
